<svg xmlns="http://www.w3.org/2000/svg" width="1160" height="760" viewBox="0 0 1160 760" role="img" aria-label="Keepa Agent Research Figures: bounded history lines">
  <rect width="1160" height="760" fill="#ffffff"/>
  <rect x="28" y="24" width="1104" height="712" rx="10" fill="#ffffff" stroke="#eef2f7" stroke-width="1"/>
  <text x="56" y="42" font-family="'Times New Roman', 'SimSun', '宋体', serif" font-size="21" font-weight="700" fill="#1f2933">Keepa Agent Research Figures: bounded history lines</text>
  <text x="56" y="66" font-family="'Times New Roman', 'SimSun', '宋体', serif" font-size="12" fill="#667085">Recent Keepa samples retained for Agent-safe inspection, normalized per metric.</text>
  <g><rect x="60" y="96" width="1040" height="560" rx="8" fill="#ffffff" stroke="#d8dee8" stroke-width="1"/><text x="80" y="124" font-family="'Times New Roman', 'SimSun', '宋体', serif" font-size="14" font-weight="700" fill="#1f2933">B  Price / rank history</text><text x="80" y="144" font-family="'Times New Roman', 'SimSun', '宋体', serif" font-size="10" fill="#667085">One row per metric; colors compare ASINs on normalized retained history</text><line x1="178.0" y1="192.0" x2="1036.0" y2="192.0" stroke="#d8dee8" stroke-width="1"/><line x1="178.0" y1="232.0" x2="1036.0" y2="232.0" stroke="#eef2f7" stroke-width="1"/><line x1="178.0" y1="272.0" x2="1036.0" y2="272.0" stroke="#d8dee8" stroke-width="1"/><line x1="178.0" y1="192.0" x2="178.0" y2="272.0" stroke="#d8dee8" stroke-width="1"/><line x1="178.0" y1="272.0" x2="1036.0" y2="272.0" stroke="#d8dee8" stroke-width="1"/><text x="86" y="210" font-family="'Times New Roman', 'SimSun', '宋体', serif" font-size="10.5" font-weight="700" fill="#1f2933">New price</text><text x="168.0" y="195.0" text-anchor="end" font-family="'Times New Roman', 'SimSun', '宋体', serif" font-size="8" fill="#667085">1</text><text x="168.0" y="275.0" text-anchor="end" font-family="'Times New Roman', 'SimSun', '宋体', serif" font-size="8" fill="#667085">0</text><polyline points="178.0,236.6 192.5,192.6 207.1,236.6 221.6,192.6 236.2,192.0 250.7,192.6 265.3,192.0 279.8,192.6 294.3,192.0 308.8,272.0 323.4,192.0 337.9,256.0 352.5,208.0 367.0,192.2 381.6,199.8 396.1,208.0 410.7,192.0 425.2,193.4 439.8,236.6 454.3,240.0 468.9,193.4 483.4,240.0 497.9,193.4 512.4,199.8 527.0,240.0 541.5,199.8 556.1,263.8 570.6,199.8 585.2,263.8 599.7,199.8 614.3,263.8 628.8,199.8 643.4,263.8 657.9,199.8 672.5,263.8 687.0,199.8 701.6,256.0 716.1,199.8 730.6,256.0 745.1,199.8 759.7,256.0 774.2,224.0 788.8,240.0 803.3,256.0 817.9,199.8 832.4,256.0 847.0,199.8 861.5,256.0 876.1,199.8 890.6,256.0 905.2,199.8 919.7,256.0 934.2,199.8 948.7,256.0 963.3,199.8 977.8,256.0 992.4,199.8 1006.9,256.0 1021.5,199.8 1036.0,272.0" fill="none" stroke="#087f73" stroke-width="2" stroke-linejoin="round" stroke-linecap="round"/><circle cx="1036.0" cy="272.0" r="2.7" fill="#ffffff" stroke="#087f73" stroke-width="1.5"/><line x1="178.0" y1="294.0" x2="1036.0" y2="294.0" stroke="#d8dee8" stroke-width="1"/><line x1="178.0" y1="334.0" x2="1036.0" y2="334.0" stroke="#eef2f7" stroke-width="1"/><line x1="178.0" y1="374.0" x2="1036.0" y2="374.0" stroke="#d8dee8" stroke-width="1"/><line x1="178.0" y1="294.0" x2="178.0" y2="374.0" stroke="#d8dee8" stroke-width="1"/><line x1="178.0" y1="374.0" x2="1036.0" y2="374.0" stroke="#d8dee8" stroke-width="1"/><text x="86" y="312" font-family="'Times New Roman', 'SimSun', '宋体', serif" font-size="10.5" font-weight="700" fill="#1f2933">Buy box</text><text x="168.0" y="297.0" text-anchor="end" font-family="'Times New Roman', 'SimSun', '宋体', serif" font-size="8" fill="#667085">1</text><text x="168.0" y="377.0" text-anchor="end" font-family="'Times New Roman', 'SimSun', '宋体', serif" font-size="8" fill="#667085">0</text><polyline points="178.0,294.0 192.5,301.8 207.1,294.0 221.6,326.0 236.2,342.0 250.7,358.0 265.3,294.0 279.8,294.0 294.3,294.0 308.8,301.8 323.4,358.0 337.9,301.8 352.5,294.0 367.0,294.0 381.6,294.0 396.1,301.8 410.7,294.0 425.2,301.8 439.8,294.0 454.3,301.8 468.9,294.0 483.4,301.8 497.9,358.0 512.4,294.0 527.0,294.0 541.5,294.0 556.1,358.0 570.6,301.8 585.2,294.0 599.7,294.0 614.3,301.8 628.8,294.0 643.4,358.0 657.9,301.8 672.5,294.0 687.0,301.8 701.6,294.0 716.1,301.8 730.6,294.0 745.1,294.0 759.7,301.8 774.2,294.0 788.8,294.0 803.3,301.8 817.9,294.0 832.4,301.8 847.0,358.0 861.5,301.8 876.1,294.0 890.6,358.0 905.2,294.0 919.7,294.0 934.2,301.8 948.7,294.0 963.3,301.8 977.8,294.0 992.4,294.0 1006.9,301.8 1021.5,294.0 1036.0,374.0" fill="none" stroke="#087f73" stroke-width="2" stroke-linejoin="round" stroke-linecap="round"/><circle cx="1036.0" cy="374.0" r="2.7" fill="#ffffff" stroke="#087f73" stroke-width="1.5"/><line x1="178.0" y1="396.0" x2="1036.0" y2="396.0" stroke="#d8dee8" stroke-width="1"/><line x1="178.0" y1="436.0" x2="1036.0" y2="436.0" stroke="#eef2f7" stroke-width="1"/><line x1="178.0" y1="476.0" x2="1036.0" y2="476.0" stroke="#d8dee8" stroke-width="1"/><line x1="178.0" y1="396.0" x2="178.0" y2="476.0" stroke="#d8dee8" stroke-width="1"/><line x1="178.0" y1="476.0" x2="1036.0" y2="476.0" stroke="#d8dee8" stroke-width="1"/><text x="86" y="414" font-family="'Times New Roman', 'SimSun', '宋体', serif" font-size="10.5" font-weight="700" fill="#1f2933">Sales rank</text><text x="168.0" y="399.0" text-anchor="end" font-family="'Times New Roman', 'SimSun', '宋体', serif" font-size="8" fill="#667085">1</text><text x="168.0" y="479.0" text-anchor="end" font-family="'Times New Roman', 'SimSun', '宋体', serif" font-size="8" fill="#667085">0</text><polyline points="178.0,441.0 192.5,436.0 207.1,434.3 221.6,447.7 236.2,442.7 250.7,444.3 265.3,446.0 279.8,444.3 294.3,446.0 308.8,447.7 323.4,446.0 337.9,444.3 352.5,447.7 367.0,441.0 381.6,442.7 396.1,421.0 410.7,422.7 425.2,429.3 439.8,427.7 454.3,436.0 468.9,437.7 483.4,439.3 497.9,441.0 512.4,437.7 527.0,451.0 541.5,449.3 556.1,454.3 570.6,456.0 585.2,471.0 599.7,469.3 614.3,471.0 628.8,467.7 643.4,476.0 657.9,474.3 672.5,472.7 687.0,469.3 701.6,466.0 716.1,464.3 730.6,472.7 745.1,471.0 759.7,467.7 774.2,417.7 788.8,419.3 803.3,404.3 817.9,402.7 832.4,406.0 847.0,399.3 861.5,396.0 876.1,397.7 890.6,396.0 905.2,397.7 919.7,399.3 934.2,402.7 948.7,406.0 963.3,401.0 977.8,402.7 992.4,399.3 1006.9,402.7 1021.5,401.0 1036.0,397.7" fill="none" stroke="#087f73" stroke-width="2" stroke-linejoin="round" stroke-linecap="round"/><circle cx="1036.0" cy="397.7" r="2.7" fill="#ffffff" stroke="#087f73" stroke-width="1.5"/><line x1="178.0" y1="498.0" x2="1036.0" y2="498.0" stroke="#d8dee8" stroke-width="1"/><line x1="178.0" y1="538.0" x2="1036.0" y2="538.0" stroke="#eef2f7" stroke-width="1"/><line x1="178.0" y1="578.0" x2="1036.0" y2="578.0" stroke="#d8dee8" stroke-width="1"/><line x1="178.0" y1="498.0" x2="178.0" y2="578.0" stroke="#d8dee8" stroke-width="1"/><line x1="178.0" y1="578.0" x2="1036.0" y2="578.0" stroke="#d8dee8" stroke-width="1"/><text x="86" y="516" font-family="'Times New Roman', 'SimSun', '宋体', serif" font-size="10.5" font-weight="700" fill="#1f2933">Reviews</text><text x="168.0" y="501.0" text-anchor="end" font-family="'Times New Roman', 'SimSun', '宋体', serif" font-size="8" fill="#667085">1</text><text x="168.0" y="581.0" text-anchor="end" font-family="'Times New Roman', 'SimSun', '宋体', serif" font-size="8" fill="#667085">0</text><polyline points="178.0,533.4 192.5,533.2 207.1,533.0 221.6,532.9 236.2,533.0 250.7,532.9 265.3,532.8 279.8,532.7 294.3,532.5 308.8,526.1 323.4,525.9 337.9,525.8 352.5,525.6 367.0,578.0 381.6,525.4 396.1,525.3 410.7,525.2 425.2,525.0 439.8,524.9 454.3,524.8 468.9,524.7 483.4,524.8 497.9,524.7 512.4,524.4 527.0,517.9 541.5,525.4 556.1,517.9 570.6,517.5 585.2,517.2 599.7,516.9 614.3,516.8 628.8,516.7 643.4,516.4 657.9,517.2 672.5,516.3 687.0,510.6 701.6,510.5 716.1,510.4 730.6,510.2 745.1,517.2 759.7,510.1 774.2,510.2 788.8,509.9 803.3,509.8 817.9,509.6 832.4,509.5 847.0,506.5 861.5,504.7 876.1,504.5 890.6,504.3 905.2,503.9 919.7,503.7 934.2,504.5 948.7,503.6 963.3,499.0 977.8,498.6 992.4,498.5 1006.9,498.4 1021.5,498.1 1036.0,498.0" fill="none" stroke="#087f73" stroke-width="2" stroke-linejoin="round" stroke-linecap="round"/><circle cx="1036.0" cy="498.0" r="2.7" fill="#ffffff" stroke="#087f73" stroke-width="1.5"/><text x="178.0" y="596.0" font-family="'Times New Roman', 'SimSun', '宋体', serif" font-size="8.5" fill="#667085">oldest retained point</text><text x="1036.0" y="596.0" text-anchor="end" font-family="'Times New Roman', 'SimSun', '宋体', serif" font-size="8.5" fill="#667085">latest retained point</text><line x1="178.0" y1="622.0" x2="200.0" y2="622.0" stroke="#087f73" stroke-width="2.2"/><text x="206.0" y="626.0" font-family="'Times New Roman', 'SimSun', '宋体', serif" font-size="9" fill="#1f2933">B0D8W1YVBX</text></g>
  <text x="56" y="722" font-family="'Times New Roman', 'SimSun', '宋体', serif" font-size="11" fill="#667085">Each row is one metric; each color is one ASIN. Sales rank is inverted so upward means better.</text>
</svg>
