<svg xmlns="http://www.w3.org/2000/svg" width="900" height="620" viewBox="0 0 900 620" role="img" aria-label="Keepa Agent Research Figures: window change heatmap">
  <rect width="900" height="620" fill="#ffffff"/>
  <rect x="28" y="24" width="844" height="572" rx="10" fill="#ffffff" stroke="#eef2f7" stroke-width="1"/>
  <text x="56" y="42" font-family="'Times New Roman', 'SimSun', '宋体', serif" font-size="21" font-weight="700" fill="#1f2933">Keepa Agent Research Figures: window change heatmap</text>
  <text x="56" y="66" font-family="'Times New Roman', 'SimSun', '宋体', serif" font-size="12" fill="#667085">Percent change by series and window; green means lower, red means higher.</text>
  <g><rect x="56" y="92" width="780" height="430" rx="8" fill="#ffffff" stroke="#d8dee8" stroke-width="1"/><text x="76" y="120" font-family="'Times New Roman', 'SimSun', '宋体', serif" font-size="14" font-weight="700" fill="#1f2933">C  Window change heatmap</text><text x="76" y="140" font-family="'Times New Roman', 'SimSun', '宋体', serif" font-size="10" fill="#667085">Percent change by official Keepa history windows</text><text x="386.0" y="136.0" text-anchor="middle" font-family="'Times New Roman', 'SimSun', '宋体', serif" font-size="9" fill="#667085">window</text><text x="88.0" y="260.0" transform="rotate(-90 88.0 260.0)" text-anchor="middle" font-family="'Times New Roman', 'SimSun', '宋体', serif" font-size="9" fill="#667085">series</text><text x="234.0" y="158" text-anchor="middle" font-family="'Times New Roman', 'SimSun', '宋体', serif" font-size="9" fill="#667085">7d</text><text x="310.0" y="158" text-anchor="middle" font-family="'Times New Roman', 'SimSun', '宋体', serif" font-size="9" fill="#667085">30d</text><text x="386.0" y="158" text-anchor="middle" font-family="'Times New Roman', 'SimSun', '宋体', serif" font-size="9" fill="#667085">90d</text><text x="462.0" y="158" text-anchor="middle" font-family="'Times New Roman', 'SimSun', '宋体', serif" font-size="9" fill="#667085">180d</text><text x="538.0" y="158" text-anchor="middle" font-family="'Times New Roman', 'SimSun', '宋体', serif" font-size="9" fill="#667085">365d</text><text x="76" y="188" font-family="'Times New Roman', 'SimSun', '宋体', serif" font-size="9" fill="#1f2933">new</text><rect x="196" y="170" width="72" height="26" rx="4" fill="#d9f1e9" stroke="#ffffff" stroke-width="1"/><text x="232.0" y="187" text-anchor="middle" font-family="'Times New Roman', 'SimSun', '宋体', serif" font-size="8" fill="#1f2933">-12.85%</text><rect x="272" y="170" width="72" height="26" rx="4" fill="#b7e4d8" stroke="#ffffff" stroke-width="1"/><text x="308.0" y="187" text-anchor="middle" font-family="'Times New Roman', 'SimSun', '宋体', serif" font-size="8" fill="#1f2933">-25.01%</text><rect x="348" y="170" width="72" height="26" rx="4" fill="#d9f1e9" stroke="#ffffff" stroke-width="1"/><text x="384.0" y="187" text-anchor="middle" font-family="'Times New Roman', 'SimSun', '宋体', serif" font-size="8" fill="#1f2933">-16.68%</text><rect x="424" y="170" width="72" height="26" rx="4" fill="#d9f1e9" stroke="#ffffff" stroke-width="1"/><text x="460.0" y="187" text-anchor="middle" font-family="'Times New Roman', 'SimSun', '宋体', serif" font-size="8" fill="#1f2933">-6.25%</text><rect x="500" y="170" width="72" height="26" rx="4" fill="#d9f1e9" stroke="#ffffff" stroke-width="1"/><text x="536.0" y="187" text-anchor="middle" font-family="'Times New Roman', 'SimSun', '宋体', serif" font-size="8" fill="#1f2933">-6.25%</text><text x="76" y="218" font-family="'Times New Roman', 'SimSun', '宋体', serif" font-size="9" fill="#1f2933">buy_box_shipping</text><rect x="196" y="200" width="72" height="26" rx="4" fill="#d9f1e9" stroke="#ffffff" stroke-width="1"/><text x="232.0" y="217" text-anchor="middle" font-family="'Times New Roman', 'SimSun', '宋体', serif" font-size="8" fill="#1f2933">-12.85%</text><rect x="272" y="200" width="72" height="26" rx="4" fill="#b7e4d8" stroke="#ffffff" stroke-width="1"/><text x="308.0" y="217" text-anchor="middle" font-family="'Times New Roman', 'SimSun', '宋体', serif" font-size="8" fill="#1f2933">-25.01%</text><rect x="348" y="200" width="72" height="26" rx="4" fill="#b7e4d8" stroke="#ffffff" stroke-width="1"/><text x="384.0" y="217" text-anchor="middle" font-family="'Times New Roman', 'SimSun', '宋体', serif" font-size="8" fill="#1f2933">-25.01%</text><rect x="424" y="200" width="72" height="26" rx="4" fill="#d9f1e9" stroke="#ffffff" stroke-width="1"/><text x="460.0" y="217" text-anchor="middle" font-family="'Times New Roman', 'SimSun', '宋体', serif" font-size="8" fill="#1f2933">-6.25%</text><rect x="500" y="200" width="72" height="26" rx="4" fill="#d9f1e9" stroke="#ffffff" stroke-width="1"/><text x="536.0" y="217" text-anchor="middle" font-family="'Times New Roman', 'SimSun', '宋体', serif" font-size="8" fill="#1f2933">-6.25%</text><text x="76" y="248" font-family="'Times New Roman', 'SimSun', '宋体', serif" font-size="9" fill="#1f2933">sales_rank</text><rect x="196" y="230" width="72" height="26" rx="4" fill="#eef2f7" stroke="#ffffff" stroke-width="1"/><text x="232.0" y="247" text-anchor="middle" font-family="'Times New Roman', 'SimSun', '宋体', serif" font-size="8" fill="#1f2933">0%</text><rect x="272" y="230" width="72" height="26" rx="4" fill="#b7e4d8" stroke="#ffffff" stroke-width="1"/><text x="308.0" y="247" text-anchor="middle" font-family="'Times New Roman', 'SimSun', '宋体', serif" font-size="8" fill="#1f2933">-39.47%</text><rect x="348" y="230" width="72" height="26" rx="4" fill="#f8d8ca" stroke="#ffffff" stroke-width="1"/><text x="384.0" y="247" text-anchor="middle" font-family="'Times New Roman', 'SimSun', '宋体', serif" font-size="8" fill="#1f2933">9.52%</text><rect x="424" y="230" width="72" height="26" rx="4" fill="#b7e4d8" stroke="#ffffff" stroke-width="1"/><text x="460.0" y="247" text-anchor="middle" font-family="'Times New Roman', 'SimSun', '宋体', serif" font-size="8" fill="#1f2933">-25.81%</text><rect x="500" y="230" width="72" height="26" rx="4" fill="#b7e4d8" stroke="#ffffff" stroke-width="1"/><text x="536.0" y="247" text-anchor="middle" font-family="'Times New Roman', 'SimSun', '宋体', serif" font-size="8" fill="#1f2933">-99.01%</text><text x="76" y="278" font-family="'Times New Roman', 'SimSun', '宋体', serif" font-size="9" fill="#1f2933">review_count</text><rect x="196" y="260" width="72" height="26" rx="4" fill="#eef2f7" stroke="#ffffff" stroke-width="1"/><text x="232.0" y="277" text-anchor="middle" font-family="'Times New Roman', 'SimSun', '宋体', serif" font-size="8" fill="#1f2933">3.59%</text><rect x="272" y="260" width="72" height="26" rx="4" fill="#f8d8ca" stroke="#ffffff" stroke-width="1"/><text x="308.0" y="277" text-anchor="middle" font-family="'Times New Roman', 'SimSun', '宋体', serif" font-size="8" fill="#1f2933">18.42%</text><rect x="348" y="260" width="72" height="26" rx="4" fill="#f3b6b1" stroke="#ffffff" stroke-width="1"/><text x="384.0" y="277" text-anchor="middle" font-family="'Times New Roman', 'SimSun', '宋体', serif" font-size="8" fill="#1f2933">91.07%</text><rect x="424" y="260" width="72" height="26" rx="4" fill="#f3b6b1" stroke="#ffffff" stroke-width="1"/><text x="460.0" y="277" text-anchor="middle" font-family="'Times New Roman', 'SimSun', '宋体', serif" font-size="8" fill="#1f2933">404.26%</text><rect x="500" y="260" width="72" height="26" rx="4" fill="#f3b6b1" stroke="#ffffff" stroke-width="1"/><text x="536.0" y="277" text-anchor="middle" font-family="'Times New Roman', 'SimSun', '宋体', serif" font-size="8" fill="#1f2933">3.2k%</text><text x="76" y="308" font-family="'Times New Roman', 'SimSun', '宋体', serif" font-size="9" fill="#1f2933">rating</text><rect x="196" y="290" width="72" height="26" rx="4" fill="#eef2f7" stroke="#ffffff" stroke-width="1"/><text x="232.0" y="307" text-anchor="middle" font-family="'Times New Roman', 'SimSun', '宋体', serif" font-size="8" fill="#1f2933">0%</text><rect x="272" y="290" width="72" height="26" rx="4" fill="#eef2f7" stroke="#ffffff" stroke-width="1"/><text x="308.0" y="307" text-anchor="middle" font-family="'Times New Roman', 'SimSun', '宋体', serif" font-size="8" fill="#1f2933">0%</text><rect x="348" y="290" width="72" height="26" rx="4" fill="#eef2f7" stroke="#ffffff" stroke-width="1"/><text x="384.0" y="307" text-anchor="middle" font-family="'Times New Roman', 'SimSun', '宋体', serif" font-size="8" fill="#1f2933">-2.27%</text><rect x="424" y="290" width="72" height="26" rx="4" fill="#eef2f7" stroke="#ffffff" stroke-width="1"/><text x="460.0" y="307" text-anchor="middle" font-family="'Times New Roman', 'SimSun', '宋体', serif" font-size="8" fill="#1f2933">-4.44%</text><rect x="500" y="290" width="72" height="26" rx="4" fill="#eef2f7" stroke="#ffffff" stroke-width="1"/><text x="536.0" y="307" text-anchor="middle" font-family="'Times New Roman', 'SimSun', '宋体', serif" font-size="8" fill="#1f2933">0%</text><text x="76" y="338" font-family="'Times New Roman', 'SimSun', '宋体', serif" font-size="9" fill="#1f2933">new_offer_count</text><rect x="196" y="320" width="72" height="26" rx="4" fill="#f3b6b1" stroke="#ffffff" stroke-width="1"/><text x="232.0" y="337" text-anchor="middle" font-family="'Times New Roman', 'SimSun', '宋体', serif" font-size="8" fill="#1f2933">66.67%</text><rect x="272" y="320" width="72" height="26" rx="4" fill="#eef2f7" stroke="#ffffff" stroke-width="1"/><text x="308.0" y="337" text-anchor="middle" font-family="'Times New Roman', 'SimSun', '宋体', serif" font-size="8" fill="#1f2933">0%</text><rect x="348" y="320" width="72" height="26" rx="4" fill="#f3b6b1" stroke="#ffffff" stroke-width="1"/><text x="384.0" y="337" text-anchor="middle" font-family="'Times New Roman', 'SimSun', '宋体', serif" font-size="8" fill="#1f2933">25%</text><rect x="424" y="320" width="72" height="26" rx="4" fill="#f3b6b1" stroke="#ffffff" stroke-width="1"/><text x="460.0" y="337" text-anchor="middle" font-family="'Times New Roman', 'SimSun', '宋体', serif" font-size="8" fill="#1f2933">150%</text><rect x="500" y="320" width="72" height="26" rx="4" fill="#f3b6b1" stroke="#ffffff" stroke-width="1"/><text x="536.0" y="337" text-anchor="middle" font-family="'Times New Roman', 'SimSun', '宋体', serif" font-size="8" fill="#1f2933">150%</text><rect x="196" y="478" width="24" height="12" rx="3" fill="#b7e4d8" stroke="#ffffff" stroke-width="1"/><text x="226" y="488" font-family="'Times New Roman', 'SimSun', '宋体', serif" font-size="8" fill="#667085">lower</text><rect x="278" y="478" width="24" height="12" rx="3" fill="#eef2f7" stroke="#ffffff" stroke-width="1"/><text x="308" y="488" font-family="'Times New Roman', 'SimSun', '宋体', serif" font-size="8" fill="#667085">flat</text><rect x="360" y="478" width="24" height="12" rx="3" fill="#f3b6b1" stroke="#ffffff" stroke-width="1"/><text x="390" y="488" font-family="'Times New Roman', 'SimSun', '宋体', serif" font-size="8" fill="#667085">higher</text></g>
  <text x="56" y="582" font-family="'Times New Roman', 'SimSun', '宋体', serif" font-size="11" fill="#667085">Cells use the Agent temporal_by_window / temporal_features fields, not a new Keepa request.</text>
</svg>
